<svg width="396" height="166.99005668019458" viewBox="0 0 350 147.5922218133033" class="looka-1j8o68f"><defs id="SvgjsDefs5905"></defs><g id="SvgjsG5906" featurekey="X3o6dM-0" transform="matrix(8.391428287120773,0,0,8.391428287120773,-1.3426184925671933,-66.12446386552408)" fill="#f5f5f5"><path d="M14.64 21.4 q0.24 0.04 0.54 0.13 t0.57 0.24 t0.46 0.36 t0.19 0.49 q0 0.26 -0.19 0.38 t-0.46 0.17 t-0.57 0.04 t-0.52 -0.01 l-5.36 0 t-3.64 0.01 t-2.25 0.01 t-1.22 0.01 t-0.53 0.01 l-0.18 0 q-0.5 0 -0.91 -0.14 t-0.41 -0.44 q0 -0.26 0.2 -0.39 t0.51 -0.19 t0.67 -0.06 l0.66 0 q0.98 0 1.92 -0.06 t1.9 -0.16 q-0.16 -1.04 -0.22 -2.5 t-0.06 -2.99 t0.03 -2.96 t0.07 -2.41 q0 -0.62 0.03 -1.17 t0.09 -0.97 t0.16 -0.67 t0.26 -0.25 q0.32 0 0.55 0.2 t0.39 0.5 t0.23 0.64 t0.05 0.6 q-0.06 1.92 -0.11 3.37 t-0.1 2.53 t-0.08 1.83 t-0.03 1.23 q-0.02 0.3 -0.06 0.68 t-0.1 0.78 t-0.14 0.79 t-0.2 0.69 q0.92 -0.08 1.87 -0.18 t1.93 -0.17 t1.99 -0.07 t2.07 0.1 z M11.459999999999999 15.84 q0 -0.48 0.25 -0.66 t0.55 -0.14 t0.52 0.26 t0.16 0.54 q-0.08 0.36 -0.15 0.9 t-0.09 1.04 t0.03 0.86 t0.23 0.36 q0.12 0 0.29 -0.31 t0.33 -0.73 t0.3 -0.84 t0.18 -0.64 q0.06 -0.2 0.2 -0.27 t0.27 -0.04 t0.22 0.15 t0.03 0.3 q-0.04 0.12 -0.13 0.45 t-0.23 0.73 t-0.33 0.83 t-0.44 0.76 t-0.55 0.51 t-0.66 0.08 q-0.54 -0.16 -0.77 -0.59 t-0.27 -1 t0.01 -1.24 t0.05 -1.31 z M13.739999999999998 13.1 q0.04 0.22 -0.05 0.41 t-0.27 0.34 t-0.42 0.25 t-0.5 0.14 q-0.5 0.06 -0.98 -0.1 t-0.54 -0.58 q-0.08 -0.44 0.27 -0.75 t0.93 -0.41 t1.04 0.09 t0.52 0.61 z M14.28 13.440000000000001 q0 -0.14 0.01 -0.27 t0.01 -0.23 q0 -0.48 0.26 -0.67 t0.56 -0.17 t0.53 0.22 t0.17 0.52 l-0.1 0.52 l0.48 0 q0.38 0 0.55 0.13 t0.17 0.28 t-0.18 0.27 t-0.5 0.12 l-0.6 0 q-0.08 0.72 -0.14 1.59 t-0.08 1.64 t0.02 1.28 t0.18 0.51 q0.12 0 0.33 -0.36 t0.43 -0.83 t0.4 -0.92 t0.24 -0.61 q0.04 -0.18 0.18 -0.24 t0.27 -0.03 t0.22 0.14 t0.03 0.29 q-0.12 0.4 -0.32 1.04 t-0.5 1.24 t-0.72 1.04 t-1 0.44 q-0.38 0 -0.62 -0.3 t-0.36 -0.79 t-0.15 -1.13 t-0.01 -1.32 t0.08 -1.37 t0.1 -1.27 l-0.48 0 q-0.32 0 -0.49 -0.12 t-0.18 -0.26 t0.15 -0.26 t0.52 -0.12 l0.54 0 z M31.64 21.4 q0.24 0.04 0.54 0.13 t0.57 0.24 t0.46 0.36 t0.19 0.49 q0 0.26 -0.19 0.38 t-0.46 0.17 t-0.57 0.04 t-0.52 -0.01 l-5.36 0 t-3.64 0.01 t-2.25 0.01 t-1.22 0.01 t-0.53 0.01 l-0.18 0 q-0.5 0 -0.91 -0.14 t-0.41 -0.44 q0 -0.26 0.2 -0.39 t0.51 -0.19 t0.67 -0.06 l0.66 0 q0.98 0 1.92 -0.06 t1.9 -0.16 q-0.16 -1.04 -0.22 -2.5 t-0.06 -2.99 t0.03 -2.96 t0.07 -2.41 q0 -0.62 0.03 -1.17 t0.09 -0.97 t0.16 -0.67 t0.26 -0.25 q0.32 0 0.55 0.2 t0.39 0.5 t0.23 0.64 t0.05 0.6 q-0.06 1.92 -0.11 3.37 t-0.1 2.53 t-0.08 1.83 t-0.03 1.23 q-0.02 0.3 -0.06 0.68 t-0.1 0.78 t-0.14 0.79 t-0.2 0.69 q0.92 -0.08 1.87 -0.18 t1.93 -0.17 t1.99 -0.07 t2.07 0.1 z M28.459999999999997 15.84 q0 -0.48 0.25 -0.66 t0.55 -0.14 t0.52 0.26 t0.16 0.54 q-0.08 0.36 -0.15 0.9 t-0.09 1.04 t0.03 0.86 t0.23 0.36 q0.12 0 0.29 -0.31 t0.33 -0.73 t0.3 -0.84 t0.18 -0.64 q0.06 -0.2 0.2 -0.27 t0.27 -0.04 t0.22 0.15 t0.03 0.3 q-0.04 0.12 -0.13 0.45 t-0.23 0.73 t-0.33 0.83 t-0.44 0.76 t-0.55 0.51 t-0.66 0.08 q-0.54 -0.16 -0.77 -0.59 t-0.27 -1 t0.01 -1.24 t0.05 -1.31 z M30.74 13.1 q0.04 0.22 -0.05 0.41 t-0.27 0.34 t-0.42 0.25 t-0.5 0.14 q-0.5 0.06 -0.98 -0.1 t-0.54 -0.58 q-0.08 -0.44 0.27 -0.75 t0.93 -0.41 t1.04 0.09 t0.52 0.61 z M31.139999999999997 15.52 q0.06 -0.4 0.34 -0.6 t0.57 -0.22 t0.51 0.12 t0.18 0.44 q-0.04 0.28 -0.11 0.63 t-0.13 0.7 t-0.09 0.66 t-0.01 0.51 q0.16 -0.54 0.37 -0.97 t0.43 -0.73 q0.16 -0.2 0.44 -0.31 t0.54 -0.1 t0.42 0.15 t0.06 0.4 q-0.06 0.18 -0.11 0.56 t-0.05 0.77 t0.04 0.68 t0.14 0.29 q0.12 0 0.32 -0.22 t0.4 -0.53 t0.37 -0.66 t0.25 -0.61 q0.04 -0.18 0.17 -0.24 t0.25 -0.04 t0.2 0.13 t0.04 0.29 q-0.06 0.28 -0.28 0.76 t-0.52 0.94 t-0.66 0.81 t-0.7 0.35 q-0.58 0 -0.83 -0.31 t-0.33 -0.7 t-0.06 -0.76 t-0.02 -0.47 q-0.1 0.04 -0.21 0.28 t-0.21 0.56 t-0.18 0.67 t-0.1 0.59 q-0.04 0.26 -0.27 0.39 t-0.5 0.13 t-0.49 -0.14 t-0.2 -0.44 q0.02 -0.34 0 -0.82 t-0.04 -1.01 t-0.02 -1.03 t0.08 -0.9 z M41.199999999999996 16.42 q0.08 -0.18 0.22 -0.23 t0.26 -0.01 t0.17 0.15 t-0.03 0.29 q-0.12 0.28 -0.33 0.82 t-0.5 1.09 t-0.69 0.97 t-0.9 0.46 q-0.6 0.04 -0.87 -0.3 t-0.36 -0.82 t-0.06 -0.96 t0.07 -0.7 q0 -0.1 -0.1 -0.1 t-0.25 0.06 t-0.3 0.17 t-0.23 0.23 q-0.02 0.76 -0.03 1.42 t0.01 1.1 q0 0.28 -0.21 0.41 t-0.48 0.12 t-0.48 -0.16 t-0.21 -0.45 q0.02 -0.5 0.05 -1.26 t0.05 -1.62 t0.04 -1.75 t0.03 -1.66 t0.01 -1.34 l0 -0.79 q-0.02 -0.38 0.23 -0.61 t0.55 -0.31 t0.54 0 t0.2 0.3 q-0.02 0.14 -0.06 0.66 t-0.08 1.28 t-0.08 1.67 t-0.06 1.83 q0.46 -0.56 0.85 -1.05 t0.47 -0.97 q0.02 -0.22 0.33 -0.34 t0.64 -0.12 t0.57 0.14 t0.12 0.4 q-0.14 0.3 -0.49 0.6 t-0.73 0.58 t-0.72 0.52 t-0.46 0.42 q0.14 -0.04 0.47 -0.15 t0.64 -0.14 t0.5 0.11 t0.05 0.6 q-0.12 0.36 -0.14 0.74 t0.02 0.67 t0.15 0.44 t0.27 0.05 q0.18 -0.12 0.36 -0.42 t0.36 -0.67 t0.34 -0.75 t0.28 -0.62 z"></path></g></svg>